<?xml version="1.0" encoding="utf-8"?>
<!-- Generator: Adobe Illustrator 22.1.0, SVG Export Plug-In . SVG Version: 6.00 Build 0)  -->
<svg version="1.1" xmlns="http://www.w3.org/2000/svg" xmlns:xlink="http://www.w3.org/1999/xlink" x="0px" y="0px"
	 viewBox="0 0 628.484 163.764" enable-background="new 0 0 628.484 163.764" xml:space="preserve">
<g id="FUNDO">
</g>
<g id="Camada_1">
</g>
<g id="Camada_5">
</g>
<g id="Camada_4">
</g>
<g id="Camada_3">
</g>
<g id="Camada_2">
	<g>
		<path fill="#6F7072" d="M241.826,4.472v36.61c0,1.54-0.082,2.964-0.246,4.27c-0.164,1.307-0.432,2.427-0.805,3.36
			c-0.607,1.494-1.436,2.859-2.484,4.095c-1.051,1.237-2.275,2.287-3.676,3.15c-1.4,0.864-2.951,1.54-4.654,2.03
			c-1.705,0.49-3.49,0.735-5.355,0.735c-5.646,0-10.244-2.59-13.789-7.77l8.959-9.17c0.232,1.587,0.746,2.847,1.541,3.78
			c0.793,0.934,1.771,1.4,2.939,1.4c2.566,0,3.85-2.03,3.85-6.09v-36.4H241.826z"/>
		<path fill="#6F7072" d="M250.576,30.862c0-3.92,0.723-7.571,2.17-10.955c1.445-3.383,3.453-6.335,6.02-8.855
			c2.566-2.52,5.635-4.491,9.205-5.915c3.57-1.423,7.5-2.135,11.795-2.135c4.246,0,8.166,0.712,11.76,2.135
			c3.594,1.424,6.686,3.395,9.275,5.915c2.59,2.52,4.607,5.472,6.055,8.855c1.445,3.384,2.17,7.035,2.17,10.955
			s-0.725,7.572-2.17,10.955c-1.447,3.384-3.465,6.335-6.055,8.855c-2.59,2.52-5.682,4.492-9.275,5.915
			c-3.594,1.423-7.514,2.135-11.76,2.135c-4.295,0-8.225-0.712-11.795-2.135c-3.57-1.423-6.639-3.395-9.205-5.915
			c-2.566-2.52-4.574-5.471-6.02-8.855C251.299,38.434,250.576,34.782,250.576,30.862z M264.926,30.862
			c0,2.1,0.395,4.037,1.189,5.81c0.793,1.774,1.865,3.314,3.221,4.62c1.352,1.307,2.928,2.322,4.725,3.045
			c1.795,0.724,3.697,1.085,5.705,1.085c2.006,0,3.908-0.361,5.705-1.085c1.795-0.723,3.383-1.738,4.76-3.045
			c1.375-1.306,2.461-2.846,3.254-4.62c0.793-1.773,1.191-3.71,1.191-5.81s-0.398-4.036-1.191-5.81
			c-0.793-1.773-1.879-3.313-3.254-4.62c-1.377-1.306-2.965-2.321-4.76-3.045c-1.797-0.723-3.699-1.085-5.705-1.085
			c-2.008,0-3.91,0.362-5.705,1.085c-1.797,0.724-3.373,1.739-4.725,3.045c-1.355,1.307-2.428,2.847-3.221,4.62
			C265.32,26.826,264.926,28.762,264.926,30.862z"/>
		<path fill="#6F7072" d="M343.395,27.712h27.23c0,2.8-0.117,5.344-0.352,7.63c-0.232,2.287-0.699,4.41-1.398,6.37
			c-0.98,2.754-2.31,5.192-3.99,7.315c-1.68,2.124-3.652,3.897-5.916,5.32c-2.264,1.424-4.748,2.509-7.455,3.255
			c-2.707,0.746-5.553,1.12-8.539,1.12c-4.107,0-7.852-0.677-11.234-2.03c-3.385-1.353-6.289-3.255-8.717-5.705
			c-2.426-2.45-4.316-5.39-5.67-8.82c-1.353-3.43-2.029-7.221-2.029-11.375c0-4.106,0.666-7.875,1.994-11.305
			c1.33-3.43,3.221-6.358,5.672-8.785c2.449-2.426,5.4-4.316,8.854-5.67c3.453-1.353,7.303-2.03,11.551-2.03
			c5.506,0,10.336,1.19,14.49,3.57c4.152,2.38,7.443,6.067,9.869,11.06l-13.02,5.39c-1.215-2.893-2.789-4.97-4.725-6.23
			c-1.938-1.26-4.143-1.89-6.615-1.89c-2.055,0-3.92,0.385-5.6,1.155c-1.68,0.77-3.115,1.867-4.305,3.29
			c-1.191,1.424-2.125,3.139-2.801,5.145c-0.678,2.007-1.016,4.247-1.016,6.72c0,2.24,0.291,4.317,0.875,6.23
			c0.584,1.914,1.459,3.57,2.625,4.97c1.166,1.4,2.613,2.485,4.34,3.255c1.727,0.77,3.734,1.155,6.021,1.155
			c1.352,0,2.658-0.151,3.92-0.455c1.26-0.303,2.391-0.793,3.395-1.47c1.002-0.676,1.83-1.551,2.484-2.625
			c0.652-1.073,1.096-2.38,1.33-3.92h-11.27V27.712z"/>
		<path fill="#6F7072" d="M376.924,30.862c0-3.92,0.723-7.571,2.17-10.955c1.445-3.383,3.453-6.335,6.02-8.855
			c2.566-2.52,5.635-4.491,9.205-5.915c3.57-1.423,7.502-2.135,11.795-2.135c4.246,0,8.166,0.712,11.76,2.135
			c3.594,1.424,6.686,3.395,9.275,5.915c2.59,2.52,4.609,5.472,6.055,8.855c1.447,3.384,2.17,7.035,2.17,10.955
			s-0.723,7.572-2.17,10.955c-1.445,3.384-3.465,6.335-6.055,8.855c-2.59,2.52-5.682,4.492-9.275,5.915
			c-3.594,1.423-7.514,2.135-11.76,2.135c-4.293,0-8.225-0.712-11.795-2.135c-3.57-1.423-6.639-3.395-9.205-5.915
			c-2.566-2.52-4.574-5.471-6.02-8.855C377.647,38.434,376.924,34.782,376.924,30.862z M391.273,30.862
			c0,2.1,0.396,4.037,1.191,5.81c0.793,1.774,1.865,3.314,3.219,4.62c1.354,1.307,2.928,2.322,4.725,3.045
			c1.797,0.724,3.699,1.085,5.705,1.085c2.006,0,3.908-0.361,5.705-1.085c1.797-0.723,3.383-1.738,4.76-3.045
			c1.377-1.306,2.461-2.846,3.256-4.62c0.793-1.773,1.189-3.71,1.189-5.81s-0.396-4.036-1.189-5.81
			c-0.795-1.773-1.879-3.313-3.256-4.62c-1.377-1.306-2.963-2.321-4.76-3.045c-1.797-0.723-3.699-1.085-5.705-1.085
			c-2.006,0-3.908,0.362-5.705,1.085c-1.797,0.724-3.371,1.739-4.725,3.045c-1.353,1.307-2.426,2.847-3.219,4.62
			C391.67,26.826,391.273,28.762,391.273,30.862z"/>
		<path fill="#6F7072" d="M467.853,4.472h20.299c3.594,0,6.965,0.724,10.115,2.17c3.15,1.447,5.902,3.372,8.26,5.775
			c2.355,2.404,4.211,5.204,5.564,8.4c1.354,3.197,2.031,6.545,2.031,10.045c0,3.454-0.666,6.779-1.996,9.975
			c-1.33,3.197-3.174,6.009-5.529,8.435c-2.357,2.427-5.109,4.364-8.26,5.81c-3.15,1.447-6.545,2.17-10.186,2.17h-20.299V4.472z
			 M481.572,45.632h3.15c2.381,0,4.504-0.373,6.369-1.12c1.867-0.746,3.441-1.773,4.727-3.08c1.283-1.306,2.262-2.858,2.939-4.655
			c0.676-1.796,1.016-3.768,1.016-5.915c0-2.1-0.352-4.06-1.051-5.88c-0.699-1.82-1.691-3.383-2.975-4.69
			c-1.285-1.306-2.859-2.333-4.725-3.08c-1.867-0.746-3.967-1.12-6.301-1.12h-3.15V45.632z"/>
		<path fill="#6F7072" d="M520.492,30.862c0-3.92,0.723-7.571,2.17-10.955c1.445-3.383,3.453-6.335,6.019-8.855
			c2.566-2.52,5.635-4.491,9.205-5.915c3.57-1.423,7.502-2.135,11.795-2.135c4.246,0,8.166,0.712,11.76,2.135
			c3.594,1.424,6.686,3.395,9.275,5.915c2.59,2.52,4.609,5.472,6.055,8.855c1.447,3.384,2.17,7.035,2.17,10.955
			s-0.723,7.572-2.17,10.955c-1.445,3.384-3.465,6.335-6.055,8.855c-2.59,2.52-5.682,4.492-9.275,5.915
			c-3.594,1.423-7.514,2.135-11.76,2.135c-4.293,0-8.225-0.712-11.795-2.135c-3.57-1.423-6.639-3.395-9.205-5.915
			c-2.566-2.52-4.574-5.471-6.019-8.855C521.215,38.434,520.492,34.782,520.492,30.862z M534.842,30.862
			c0,2.1,0.396,4.037,1.191,5.81c0.793,1.774,1.865,3.314,3.219,4.62c1.354,1.307,2.928,2.322,4.725,3.045
			c1.797,0.724,3.699,1.085,5.705,1.085c2.006,0,3.908-0.361,5.705-1.085c1.797-0.723,3.383-1.738,4.76-3.045
			c1.377-1.306,2.461-2.846,3.256-4.62c0.793-1.773,1.19-3.71,1.19-5.81s-0.396-4.036-1.19-5.81
			c-0.795-1.773-1.879-3.313-3.256-4.62c-1.377-1.306-2.963-2.321-4.76-3.045c-1.797-0.723-3.699-1.085-5.705-1.085
			c-2.006,0-3.908,0.362-5.705,1.085c-1.797,0.724-3.371,1.739-4.725,3.045c-1.354,1.307-2.426,2.847-3.219,4.62
			C535.238,26.826,534.842,28.762,534.842,30.862z"/>
		<path fill="#6F7072" d="M616.602,17.982c-1.494-1.213-2.986-2.111-4.481-2.695c-1.494-0.583-2.94-0.875-4.34-0.875
			c-1.773,0-3.221,0.42-4.34,1.26c-1.119,0.84-1.68,1.937-1.68,3.29c0,0.934,0.279,1.704,0.84,2.31
			c0.56,0.607,1.295,1.132,2.205,1.575c0.91,0.444,1.936,0.829,3.08,1.155c1.143,0.327,2.275,0.677,3.395,1.05
			c4.48,1.494,7.758,3.489,9.836,5.985c2.074,2.497,3.113,5.752,3.113,9.765c0,2.707-0.455,5.157-1.363,7.35
			c-0.91,2.194-2.24,4.072-3.99,5.635c-1.75,1.564-3.898,2.777-6.442,3.64c-2.543,0.863-5.424,1.295-8.644,1.295
			c-6.674,0-12.857-1.983-18.549-5.95l5.879-11.06c2.053,1.82,4.084,3.174,6.09,4.06c2.006,0.887,3.99,1.33,5.951,1.33
			c2.238,0,3.906-0.513,5.004-1.54c1.096-1.026,1.644-2.193,1.644-3.5c0-0.793-0.139-1.481-0.42-2.065
			c-0.279-0.583-0.746-1.12-1.398-1.61c-0.654-0.49-1.506-0.945-2.557-1.365c-1.049-0.42-2.32-0.886-3.814-1.4
			c-1.773-0.56-3.512-1.178-5.215-1.855c-1.703-0.676-3.221-1.575-4.551-2.695c-1.33-1.12-2.402-2.531-3.219-4.235
			c-0.818-1.703-1.225-3.861-1.225-6.475c0-2.613,0.43-4.981,1.295-7.105c0.861-2.123,2.076-3.943,3.639-5.46
			c1.565-1.516,3.477-2.695,5.74-3.535c2.264-0.84,4.795-1.26,7.596-1.26c2.613,0,5.342,0.362,8.19,1.085
			c2.846,0.724,5.576,1.785,8.189,3.185L616.602,17.982z"/>
	</g>
	<g>
		<path fill="#6F7072" d="M2.002,161.36V75.082H24.43l41.422,52.751V75.082h22.313v86.278H65.852L24.43,108.609v52.751H2.002z"/>
		<path fill="#6F7072" d="M128.672,75.082v46.915c0,2.518,0.094,5.093,0.285,7.725c0.189,2.632,0.762,5.017,1.717,7.151
			c0.953,2.137,2.461,3.873,4.52,5.206c2.061,1.336,4.959,2.003,8.697,2.003c3.736,0,6.617-0.667,8.639-2.003
			c2.021-1.333,3.527-3.069,4.52-5.206c0.991-2.135,1.583-4.52,1.774-7.151c0.189-2.632,0.286-5.207,0.286-7.725V75.082h22.312
			v50.005c0,13.428-3.071,23.229-9.211,29.408c-6.142,6.179-15.582,9.269-28.32,9.269c-12.741,0-22.199-3.09-28.379-9.269
			c-6.178-6.18-9.268-15.98-9.268-29.408V75.082H128.672z M165.288,53.112l-21.97,15.104l-8.697-8.124l18.652-17.851L165.288,53.112
			z"/>
		<path fill="#6F7072" d="M195.726,161.36l14.646-86.278h22.198l17.279,46l17.164-46h22.199l14.647,86.278h-22.315l-7.438-49.661
			L253.74,161.36h-8.926l-19.338-49.661l-7.438,49.661H195.726z"/>
		<path fill="#6F7072" d="M367.135,94.077h-26.661v14.418h25.174v18.995h-25.174v14.875h26.661v18.995h-49.089V75.082h49.089V94.077
			z"/>
		<path fill="#6F7072" d="M455.015,161.36h-27.921l-21.398-33.184v33.184h-22.428V75.082h34.9c4.806,0,9.001,0.707,12.587,2.117
			c3.585,1.412,6.54,3.338,8.868,5.778c2.326,2.442,4.08,5.264,5.264,8.468c1.182,3.204,1.773,6.637,1.773,10.299
			c0,6.562-1.584,11.882-4.749,15.962c-3.166,4.082-7.838,6.849-14.018,8.296L455.015,161.36z M405.696,113.645h4.233
			c4.424,0,7.818-0.916,10.185-2.746c2.364-1.831,3.548-4.463,3.548-7.896c0-3.434-1.184-6.064-3.548-7.896
			c-2.366-1.831-5.761-2.746-10.185-2.746h-4.233V113.645z"/>
		<path fill="#6F7072" d="M458.906,118.222c0-6.408,1.182-12.376,3.547-17.908c2.363-5.53,5.645-10.355,9.84-14.475
			c4.195-4.12,9.212-7.342,15.048-9.669c5.835-2.326,12.261-3.49,19.28-3.49c6.941,0,13.35,1.164,19.225,3.49
			c5.873,2.327,10.928,5.549,15.161,9.669c4.233,4.119,7.532,8.944,9.898,14.475c2.364,5.532,3.548,11.5,3.548,17.908
			c0,6.407-1.183,12.378-3.548,17.907c-2.365,5.532-5.664,10.355-9.898,14.476c-4.233,4.119-9.288,7.343-15.161,9.669
			c-5.875,2.326-12.283,3.49-19.225,3.49c-7.02,0-13.445-1.164-19.28-3.49c-5.836-2.326-10.852-5.55-15.048-9.669
			c-4.195-4.12-7.477-8.943-9.84-14.476C460.088,130.6,458.906,124.629,458.906,118.222z M482.363,118.222
			c0,3.433,0.646,6.599,1.945,9.497c1.296,2.9,3.05,5.418,5.264,7.553c2.211,2.136,4.786,3.795,7.724,4.977
			c2.936,1.184,6.045,1.774,9.325,1.774c3.279,0,6.389-0.59,9.326-1.774c2.935-1.183,5.53-2.842,7.781-4.977
			c2.249-2.135,4.023-4.652,5.32-7.553c1.297-2.899,1.945-6.065,1.945-9.497c0-3.433-0.648-6.598-1.945-9.498
			c-1.297-2.897-3.071-5.415-5.32-7.552c-2.251-2.135-4.846-3.794-7.781-4.978c-2.938-1.182-6.047-1.773-9.326-1.773
			c-3.28,0-6.39,0.592-9.325,1.773c-2.938,1.184-5.513,2.843-7.724,4.978c-2.214,2.137-3.968,4.654-5.264,7.552
			C483.01,111.624,482.363,114.789,482.363,118.222z"/>
		<path fill="#6F7072" d="M616.013,97.167c-2.442-1.983-4.883-3.451-7.323-4.405c-2.442-0.953-4.807-1.431-7.095-1.431
			c-2.899,0-5.264,0.687-7.095,2.06c-1.83,1.373-2.746,3.167-2.746,5.378c0,1.527,0.458,2.786,1.373,3.776
			c0.916,0.992,2.117,1.851,3.604,2.574c1.487,0.727,3.165,1.355,5.035,1.889c1.868,0.534,3.719,1.107,5.55,1.716
			c7.323,2.442,12.682,5.704,16.076,9.784c3.395,4.081,5.092,9.402,5.092,15.962c0,4.426-0.743,8.431-2.23,12.015
			c-1.488,3.587-3.662,6.657-6.523,9.212c-2.86,2.557-6.37,4.539-10.527,5.95c-4.159,1.41-8.868,2.117-14.132,2.117
			c-10.91,0-21.017-3.242-30.322-9.727l9.611-18.079c3.355,2.975,6.674,5.189,9.955,6.637c3.279,1.449,6.523,2.174,9.727,2.174
			c3.661,0,6.388-0.839,8.182-2.518c1.791-1.677,2.688-3.585,2.688-5.722c0-1.296-0.229-2.421-0.686-3.375
			c-0.457-0.953-1.221-1.831-2.289-2.632c-1.068-0.801-2.459-1.545-4.176-2.232c-1.717-0.687-3.796-1.448-6.236-2.289
			c-2.9-0.915-5.741-1.925-8.525-3.032c-2.785-1.105-5.264-2.574-7.438-4.405c-2.174-1.831-3.93-4.137-5.264-6.923
			c-1.336-2.783-2.002-6.312-2.002-10.584c0-4.271,0.704-8.143,2.117-11.614c1.41-3.471,3.392-6.445,5.949-8.926
			c2.555-2.478,5.682-4.405,9.383-5.778c3.699-1.373,7.839-2.06,12.416-2.06c4.271,0,8.734,0.592,13.388,1.773
			c4.652,1.184,9.114,2.918,13.388,5.206L616.013,97.167z"/>
	</g>
	<g>
		<path fill="#009E4D" d="M239.824,1.47v36.61c0,1.54-0.082,2.964-0.245,4.27c-0.164,1.307-0.432,2.427-0.805,3.36
			c-0.607,1.494-1.436,2.859-2.485,4.095c-1.05,1.237-2.274,2.287-3.675,3.15c-1.4,0.864-2.952,1.54-4.655,2.03
			c-1.704,0.49-3.489,0.735-5.354,0.735c-5.648,0-10.244-2.59-13.79-7.77l8.96-9.17c0.232,1.587,0.746,2.847,1.54,3.78
			c0.793,0.934,1.772,1.4,2.939,1.4c2.566,0,3.851-2.03,3.851-6.09V1.47H239.824z"/>
		<path fill="#009E4D" d="M248.574,27.86c0-3.92,0.723-7.571,2.17-10.955c1.445-3.383,3.453-6.335,6.02-8.855
			c2.566-2.52,5.635-4.491,9.205-5.915C269.539,0.712,273.47,0,277.764,0c4.246,0,8.166,0.712,11.76,2.135
			c3.594,1.424,6.686,3.395,9.275,5.915c2.59,2.52,4.608,5.472,6.055,8.855c1.446,3.384,2.17,7.035,2.17,10.955
			c0,3.92-0.724,7.572-2.17,10.955c-1.446,3.384-3.465,6.335-6.055,8.855c-2.59,2.52-5.682,4.492-9.275,5.915
			c-3.594,1.423-7.514,2.135-11.76,2.135c-4.294,0-8.225-0.712-11.795-2.135c-3.57-1.423-6.639-3.395-9.205-5.915
			s-4.574-5.471-6.02-8.855C249.297,35.432,248.574,31.78,248.574,27.86z M262.924,27.86c0,2.1,0.396,4.037,1.19,5.81
			c0.793,1.774,1.865,3.314,3.22,4.62c1.352,1.307,2.928,2.322,4.725,3.045c1.796,0.724,3.698,1.085,5.705,1.085
			c2.006,0,3.908-0.361,5.705-1.085c1.796-0.723,3.383-1.738,4.76-3.045c1.376-1.306,2.461-2.846,3.255-4.62
			c0.793-1.773,1.19-3.71,1.19-5.81s-0.397-4.036-1.19-5.81c-0.794-1.773-1.879-3.313-3.255-4.62
			c-1.377-1.306-2.964-2.321-4.76-3.045c-1.797-0.723-3.699-1.085-5.705-1.085c-2.007,0-3.909,0.362-5.705,1.085
			c-1.797,0.724-3.372,1.739-4.725,3.045c-1.355,1.307-2.427,2.847-3.22,4.62C263.319,23.824,262.924,25.76,262.924,27.86z"/>
		<path fill="#009E4D" d="M341.393,24.71h27.23c0,2.8-0.117,5.344-0.35,7.63c-0.233,2.287-0.699,4.41-1.4,6.37
			c-0.98,2.754-2.31,5.192-3.99,7.315c-1.68,2.124-3.652,3.897-5.915,5.32c-2.264,1.424-4.749,2.509-7.455,3.255
			c-2.707,0.746-5.554,1.12-8.54,1.12c-4.106,0-7.852-0.677-11.234-2.03c-3.385-1.353-6.289-3.255-8.716-5.705
			c-2.427-2.45-4.316-5.39-5.67-8.82c-1.354-3.43-2.029-7.221-2.029-11.375c0-4.106,0.665-7.875,1.994-11.305
			c1.33-3.43,3.221-6.358,5.671-8.785c2.449-2.426,5.4-4.316,8.854-5.67c3.453-1.353,7.303-2.03,11.55-2.03
			c5.506,0,10.336,1.19,14.49,3.57c4.153,2.38,7.443,6.067,9.87,11.06l-13.021,5.39c-1.214-2.893-2.789-4.97-4.725-6.23
			c-1.937-1.26-4.142-1.89-6.615-1.89c-2.054,0-3.92,0.385-5.6,1.155c-1.68,0.77-3.115,1.867-4.305,3.29
			c-1.19,1.424-2.124,3.139-2.801,5.145c-0.677,2.007-1.015,4.247-1.015,6.72c0,2.24,0.291,4.317,0.875,6.23
			c0.583,1.914,1.458,3.57,2.625,4.97c1.166,1.4,2.613,2.485,4.34,3.255c1.727,0.77,3.733,1.155,6.021,1.155
			c1.353,0,2.659-0.151,3.92-0.455c1.26-0.303,2.391-0.793,3.395-1.47c1.003-0.676,1.831-1.551,2.485-2.625
			c0.652-1.073,1.096-2.38,1.33-3.92h-11.27V24.71z"/>
		<path fill="#009E4D" d="M374.923,27.86c0-3.92,0.723-7.571,2.17-10.955c1.445-3.383,3.453-6.335,6.02-8.855
			c2.566-2.52,5.635-4.491,9.205-5.915C395.888,0.712,399.818,0,404.112,0c4.246,0,8.166,0.712,11.76,2.135
			c3.594,1.424,6.685,3.395,9.275,5.915c2.59,2.52,4.608,5.472,6.055,8.855c1.446,3.384,2.17,7.035,2.17,10.955
			c0,3.92-0.724,7.572-2.17,10.955c-1.446,3.384-3.465,6.335-6.055,8.855c-2.59,2.52-5.682,4.492-9.275,5.915
			c-3.594,1.423-7.514,2.135-11.76,2.135c-4.294,0-8.225-0.712-11.795-2.135c-3.57-1.423-6.639-3.395-9.205-5.915
			s-4.574-5.471-6.02-8.855C375.646,35.432,374.923,31.78,374.923,27.86z M389.272,27.86c0,2.1,0.396,4.037,1.19,5.81
			c0.793,1.774,1.865,3.314,3.22,4.62c1.353,1.307,2.928,2.322,4.725,3.045c1.796,0.724,3.698,1.085,5.705,1.085
			c2.006,0,3.908-0.361,5.705-1.085c1.796-0.723,3.383-1.738,4.76-3.045c1.376-1.306,2.461-2.846,3.255-4.62
			c0.793-1.773,1.19-3.71,1.19-5.81s-0.397-4.036-1.19-5.81c-0.794-1.773-1.879-3.313-3.255-4.62
			c-1.377-1.306-2.964-2.321-4.76-3.045c-1.797-0.723-3.699-1.085-5.705-1.085c-2.007,0-3.909,0.362-5.705,1.085
			c-1.797,0.724-3.372,1.739-4.725,3.045c-1.354,1.307-2.427,2.847-3.22,4.62C389.668,23.824,389.272,25.76,389.272,27.86z"/>
		<path fill="#009E4D" d="M465.852,1.47h20.3c3.593,0,6.965,0.724,10.115,2.17c3.149,1.447,5.902,3.372,8.26,5.775
			c2.355,2.404,4.211,5.204,5.564,8.4c1.354,3.197,2.03,6.545,2.03,10.045c0,3.454-0.665,6.779-1.995,9.975
			c-1.33,3.197-3.174,6.009-5.529,8.435c-2.357,2.427-5.11,4.364-8.261,5.81c-3.149,1.447-6.545,2.17-10.185,2.17h-20.3V1.47z
			 M479.571,42.63h3.15c2.38,0,4.503-0.373,6.369-1.12c1.866-0.746,3.441-1.773,4.726-3.08c1.283-1.306,2.263-2.858,2.939-4.655
			c0.677-1.796,1.016-3.768,1.016-5.915c0-2.1-0.351-4.06-1.05-5.88c-0.7-1.82-1.692-3.383-2.976-4.69
			c-1.284-1.306-2.858-2.333-4.725-3.08c-1.867-0.746-3.967-1.12-6.3-1.12h-3.15V42.63z"/>
		<path fill="#009E4D" d="M518.491,27.86c0-3.92,0.723-7.571,2.17-10.955c1.445-3.383,3.453-6.335,6.02-8.855
			c2.566-2.52,5.635-4.491,9.205-5.915C539.456,0.712,543.387,0,547.681,0c4.246,0,8.166,0.712,11.76,2.135
			c3.594,1.424,6.686,3.395,9.275,5.915c2.59,2.52,4.608,5.472,6.055,8.855c1.446,3.384,2.17,7.035,2.17,10.955
			c0,3.92-0.724,7.572-2.17,10.955c-1.446,3.384-3.465,6.335-6.055,8.855c-2.59,2.52-5.682,4.492-9.275,5.915
			c-3.594,1.423-7.514,2.135-11.76,2.135c-4.294,0-8.225-0.712-11.795-2.135c-3.57-1.423-6.639-3.395-9.205-5.915
			c-2.566-2.52-4.574-5.471-6.02-8.855C519.214,35.432,518.491,31.78,518.491,27.86z M532.841,27.86c0,2.1,0.396,4.037,1.19,5.81
			c0.793,1.774,1.865,3.314,3.22,4.62c1.353,1.307,2.928,2.322,4.725,3.045c1.796,0.724,3.698,1.085,5.705,1.085
			c2.006,0,3.908-0.361,5.705-1.085c1.796-0.723,3.383-1.738,4.76-3.045c1.376-1.306,2.461-2.846,3.255-4.62
			c0.793-1.773,1.19-3.71,1.19-5.81s-0.397-4.036-1.19-5.81c-0.794-1.773-1.879-3.313-3.255-4.62
			c-1.377-1.306-2.964-2.321-4.76-3.045c-1.797-0.723-3.699-1.085-5.705-1.085c-2.007,0-3.909,0.362-5.705,1.085
			c-1.797,0.724-3.372,1.739-4.725,3.045c-1.354,1.307-2.427,2.847-3.22,4.62C533.236,23.824,532.841,25.76,532.841,27.86z"/>
		<path fill="#009E4D" d="M614.6,14.98c-1.494-1.213-2.986-2.111-4.479-2.695c-1.494-0.583-2.94-0.875-4.34-0.875
			c-1.774,0-3.221,0.42-4.341,1.26c-1.119,0.84-1.68,1.937-1.68,3.29c0,0.934,0.28,1.704,0.84,2.31
			c0.561,0.607,1.295,1.132,2.205,1.575c0.91,0.444,1.937,0.829,3.08,1.155c1.142,0.327,2.275,0.677,3.395,1.05
			c4.48,1.494,7.758,3.489,9.835,5.985c2.075,2.497,3.114,5.752,3.114,9.765c0,2.707-0.455,5.157-1.364,7.35
			c-0.91,2.194-2.24,4.072-3.99,5.635c-1.75,1.564-3.898,2.777-6.44,3.64c-2.544,0.863-5.425,1.295-8.645,1.295
			c-6.674,0-12.857-1.983-18.55-5.95l5.88-11.06c2.053,1.82,4.083,3.174,6.09,4.06c2.006,0.887,3.99,1.33,5.95,1.33
			c2.239,0,3.907-0.513,5.005-1.54c1.096-1.026,1.645-2.193,1.645-3.5c0-0.793-0.14-1.481-0.42-2.065
			c-0.28-0.583-0.747-1.12-1.399-1.61c-0.654-0.49-1.506-0.945-2.556-1.365c-1.05-0.42-2.321-0.886-3.814-1.4
			c-1.774-0.56-3.513-1.178-5.215-1.855c-1.704-0.676-3.221-1.575-4.551-2.695c-1.33-1.12-2.403-2.531-3.22-4.235
			c-0.817-1.703-1.225-3.861-1.225-6.475c0-2.613,0.431-4.981,1.295-7.105c0.862-2.123,2.076-3.943,3.64-5.46
			c1.563-1.516,3.476-2.695,5.74-3.535C598.348,0.42,600.88,0,603.68,0c2.613,0,5.343,0.362,8.19,1.085
			c2.846,0.724,5.575,1.785,8.189,3.185L614.6,14.98z"/>
	</g>
	<g>
		<path fill="#283583" d="M0,158.358V72.08h22.428l41.424,52.751V72.08h22.312v86.278H63.852l-41.424-52.751v52.751H0z"/>
		<path fill="#283583" d="M126.67,72.08v46.915c0,2.518,0.096,5.093,0.287,7.725c0.189,2.632,0.762,5.017,1.716,7.151
			c0.953,2.137,2.46,3.873,4.521,5.206c2.059,1.336,4.957,2.003,8.695,2.003c3.737,0,6.617-0.667,8.64-2.003
			c2.02-1.333,3.528-3.069,4.52-5.206c0.99-2.135,1.582-4.52,1.773-7.151c0.189-2.632,0.285-5.207,0.285-7.725V72.08h22.314v50.005
			c0,13.428-3.072,23.229-9.212,29.408c-6.142,6.179-15.581,9.269-28.321,9.269c-12.74,0-22.198-3.09-28.377-9.269
			c-6.18-6.18-9.27-15.98-9.27-29.408V72.08H126.67z M163.287,50.11l-21.97,15.104l-8.696-8.124l18.651-17.851L163.287,50.11z"/>
		<path fill="#283583" d="M193.725,158.358l14.646-86.278h22.199l17.277,46l17.164-46h22.199l14.646,86.278h-22.312l-7.438-49.661
			l-20.369,49.661h-8.925l-19.338-49.661l-7.439,49.661H193.725z"/>
		<path fill="#283583" d="M365.135,91.075h-26.662v14.418h25.174v18.995h-25.174v14.875h26.662v18.995h-49.09V72.08h49.09V91.075z"
			/>
		<path fill="#283583" d="M453.014,158.358h-27.92l-21.398-33.184v33.184h-22.428V72.08h34.9c4.807,0,9,0.707,12.587,2.117
			c3.585,1.412,6.54,3.338,8.868,5.778c2.326,2.442,4.08,5.264,5.264,8.468c1.182,3.204,1.773,6.637,1.773,10.299
			c0,6.562-1.584,11.882-4.748,15.962c-3.167,4.082-7.839,6.849-14.018,8.296L453.014,158.358z M403.695,110.643h4.234
			c4.423,0,7.818-0.916,10.184-2.746c2.363-1.831,3.547-4.463,3.547-7.896c0-3.434-1.184-6.064-3.547-7.896
			c-2.365-1.831-5.761-2.746-10.184-2.746h-4.234V110.643z"/>
		<path fill="#283583" d="M456.904,115.22c0-6.408,1.182-12.376,3.547-17.908c2.364-5.53,5.645-10.355,9.842-14.475
			c4.193-4.12,9.211-7.342,15.047-9.669c5.836-2.326,12.262-3.49,19.281-3.49c6.94,0,13.348,1.164,19.223,3.49
			c5.874,2.327,10.928,5.549,15.162,9.669c4.234,4.119,7.533,8.944,9.898,14.475c2.363,5.532,3.547,11.5,3.547,17.908
			c0,6.407-1.184,12.378-3.547,17.907c-2.365,5.532-5.664,10.355-9.898,14.475c-4.234,4.119-9.288,7.343-15.162,9.669
			c-5.875,2.326-12.282,3.49-19.223,3.49c-7.02,0-13.445-1.164-19.281-3.49c-5.836-2.326-10.854-5.55-15.047-9.669
			c-4.197-4.12-7.478-8.943-9.842-14.475C458.086,127.598,456.904,121.627,456.904,115.22z M480.362,115.22
			c0,3.433,0.647,6.599,1.944,9.497c1.297,2.9,3.051,5.418,5.264,7.553c2.213,2.136,4.787,3.795,7.725,4.978
			c2.936,1.184,6.045,1.773,9.326,1.773c3.278,0,6.388-0.59,9.325-1.773c2.937-1.183,5.53-2.842,7.781-4.978
			c2.249-2.135,4.023-4.652,5.321-7.553c1.296-2.898,1.945-6.064,1.945-9.497c0-3.433-0.649-6.598-1.945-9.498
			c-1.299-2.897-3.072-5.415-5.321-7.552c-2.251-2.135-4.845-3.794-7.781-4.978c-2.938-1.182-6.047-1.773-9.325-1.773
			c-3.281,0-6.391,0.592-9.326,1.773c-2.938,1.184-5.512,2.843-7.725,4.978c-2.213,2.137-3.967,4.654-5.264,7.552
			C481.01,108.622,480.362,111.787,480.362,115.22z"/>
		<path fill="#283583" d="M614.012,94.165c-2.442-1.983-4.883-3.451-7.323-4.405c-2.442-0.953-4.806-1.431-7.095-1.431
			c-2.9,0-5.264,0.687-7.094,2.06c-1.832,1.373-2.747,3.167-2.747,5.378c0,1.527,0.458,2.786,1.373,3.776
			c0.915,0.992,2.117,1.851,3.605,2.574c1.488,0.727,3.165,1.355,5.035,1.889c1.868,0.534,3.719,1.106,5.549,1.716
			c7.324,2.442,12.683,5.704,16.078,9.784c3.393,4.081,5.092,9.402,5.092,15.962c0,4.426-0.744,8.431-2.231,12.015
			c-1.487,3.587-3.661,6.657-6.522,9.212c-2.861,2.557-6.371,4.539-10.527,5.95c-4.158,1.41-8.868,2.117-14.132,2.117
			c-10.909,0-21.017-3.242-30.323-9.727l9.612-18.079c3.356,2.975,6.675,5.188,9.955,6.637c3.278,1.449,6.522,2.174,9.726,2.174
			c3.662,0,6.389-0.839,8.182-2.518c1.792-1.677,2.689-3.585,2.689-5.722c0-1.296-0.229-2.421-0.687-3.375
			c-0.458-0.953-1.222-1.831-2.288-2.632c-1.07-0.801-2.461-1.545-4.178-2.231c-1.716-0.687-3.795-1.448-6.235-2.289
			c-2.9-0.915-5.741-1.925-8.524-3.032c-2.786-1.104-5.264-2.574-7.438-4.405c-2.174-1.831-3.93-4.137-5.264-6.923
			c-1.335-2.783-2.003-6.312-2.003-10.584c0-4.271,0.705-8.143,2.117-11.614c1.411-3.471,3.394-6.445,5.951-8.926
			c2.555-2.478,5.682-4.405,9.383-5.778c3.699-1.373,7.838-2.06,12.415-2.06c4.271,0,8.733,0.592,13.388,1.774
			c4.652,1.184,9.115,2.918,13.389,5.206L614.012,94.165z"/>
	</g>
</g>
</svg>
