<?xml version="1.0" encoding="utf-8"?>
<!-- Generator: Adobe Illustrator 16.0.4, SVG Export Plug-In . SVG Version: 6.00 Build 0)  -->
<!DOCTYPE svg PUBLIC "-//W3C//DTD SVG 1.1//EN" "http://www.w3.org/Graphics/SVG/1.1/DTD/svg11.dtd">
<svg version="1.1" xmlns="http://www.w3.org/2000/svg" xmlns:xlink="http://www.w3.org/1999/xlink" x="0px" y="0px" width="719px"
	 height="156px" viewBox="0 0 719 156" enable-background="new 0 0 719 156" xml:space="preserve">
<g id="FUNDO">
</g>
<g id="Camada_1">
	<g>
		<g>
			<polygon fill="#00464D" points="658,0 719,37 658,37 			"/>
		</g>
		<g>
			<polygon fill="#00464D" points="62,0 0.032,37 62,37 			"/>
		</g>
		<g>
			<rect y="37" fill="#009E4D" width="719" height="119"/>
		</g>
		<g>
			<path fill="#FFFFFF" d="M177.372,123.237h-13.72v-52.78h21.84c5.926,0,10.465,1.54,13.615,4.62
				c3.149,3.08,4.725,7.42,4.725,13.021c0,5.6-1.575,9.939-4.725,13.02c-3.15,3.08-7.689,4.62-13.615,4.62h-8.12V123.237z
				 M177.372,94.678h4.55c5.04,0,7.561-2.193,7.561-6.58s-2.521-6.58-7.561-6.58h-4.55V94.678z"/>
			<path fill="#FFFFFF" d="M240.512,114.067h-19.6l-3.15,9.17h-14.629l20.09-52.78h14.979l20.09,52.78h-14.63L240.512,114.067z
				 M236.872,103.638l-6.16-17.57l-6.159,17.57H236.872z"/>
			<path fill="#FFFFFF" d="M308.201,123.237h-17.08l-13.09-20.3v20.3h-13.721v-52.78h21.351c2.94,0,5.506,0.433,7.7,1.295
				c2.193,0.864,4.001,2.042,5.425,3.535c1.423,1.494,2.496,3.22,3.22,5.181c0.723,1.96,1.086,4.06,1.086,6.3
				c0,4.014-0.97,7.269-2.906,9.765c-1.937,2.497-4.795,4.189-8.574,5.075L308.201,123.237z M278.031,94.047h2.59
				c2.706,0,4.783-0.56,6.23-1.68c1.445-1.12,2.17-2.729,2.17-4.83c0-2.1-0.725-3.71-2.17-4.83c-1.447-1.12-3.524-1.68-6.23-1.68
				h-2.59V94.047z"/>
			<path fill="#FFFFFF" d="M346.281,114.067h-19.6l-3.15,9.17h-14.63l20.09-52.78h14.979l20.09,52.78h-14.629L346.281,114.067z
				 M342.641,103.638l-6.16-17.57l-6.159,17.57H342.641z"/>
			<path fill="#FFFFFF" d="M370.08,70.457h20.44c4.854,0,8.539,1.167,11.061,3.5c2.52,2.334,3.779,5.694,3.779,10.08
				c0,2.66-0.479,4.865-1.436,6.615s-2.414,3.232-4.375,4.445c1.961,0.374,3.629,0.944,5.006,1.715
				c1.375,0.77,2.496,1.715,3.359,2.835s1.48,2.38,1.855,3.78c0.373,1.399,0.561,2.894,0.561,4.479c0,2.475-0.434,4.667-1.295,6.58
				c-0.865,1.914-2.078,3.524-3.641,4.83c-1.564,1.307-3.465,2.287-5.705,2.939c-2.24,0.654-4.76,0.98-7.561,0.98h-22.05V70.457z
				 M383.8,91.178h2.52c4.293,0,6.441-1.703,6.441-5.11c0-3.406-2.148-5.11-6.441-5.11h-2.52V91.178z M383.8,112.598h3.01
				c3.453,0,5.926-0.443,7.42-1.33c1.494-0.886,2.24-2.311,2.24-4.271s-0.746-3.383-2.24-4.27c-1.494-0.886-3.967-1.33-7.42-1.33
				h-3.01V112.598z"/>
			<path fill="#FFFFFF" d="M448.549,82.077h-16.31v8.82h15.4v11.62h-15.4v9.1h16.31v11.62H418.52v-52.78h30.029V82.077z
				 M445.959,57.018l-13.439,9.239l-5.32-4.97l11.41-10.92L445.959,57.018z"/>
			<path fill="#FFFFFF" d="M458.419,123.237v-52.78h13.72l25.34,32.271V70.457h13.65v52.78h-13.65l-25.34-32.27v32.27H458.419z"/>
			<path fill="#FFFFFF" d="M551.168,83.968c-1.494-1.214-2.986-2.111-4.479-2.695c-1.494-0.583-2.94-0.875-4.34-0.875
				c-1.774,0-3.221,0.42-4.341,1.26c-1.119,0.84-1.68,1.938-1.68,3.29c0,0.935,0.28,1.704,0.84,2.31
				c0.561,0.607,1.295,1.133,2.205,1.575c0.91,0.444,1.937,0.829,3.08,1.155c1.143,0.327,2.275,0.677,3.396,1.05
				c4.479,1.494,7.758,3.489,9.835,5.985c2.075,2.497,3.114,5.752,3.114,9.765c0,2.707-0.455,5.157-1.364,7.351
				c-0.91,2.193-2.24,4.071-3.99,5.635s-3.897,2.777-6.44,3.64c-2.544,0.863-5.425,1.295-8.645,1.295
				c-6.674,0-12.857-1.982-18.55-5.95l5.88-11.06c2.053,1.82,4.083,3.174,6.09,4.06c2.006,0.888,3.99,1.33,5.95,1.33
				c2.239,0,3.907-0.513,5.005-1.54c1.096-1.025,1.645-2.192,1.645-3.5c0-0.793-0.14-1.48-0.42-2.064
				c-0.28-0.583-0.747-1.12-1.399-1.61c-0.654-0.49-1.506-0.944-2.556-1.365c-1.05-0.42-2.321-0.886-3.814-1.399
				c-1.774-0.561-3.513-1.178-5.215-1.855c-1.704-0.676-3.221-1.574-4.551-2.694s-2.403-2.531-3.22-4.235
				c-0.817-1.703-1.225-3.861-1.225-6.475s0.431-4.981,1.295-7.105c0.862-2.123,2.076-3.942,3.64-5.46
				c1.563-1.516,3.476-2.695,5.74-3.535c2.263-0.84,4.795-1.26,7.595-1.26c2.613,0,5.343,0.362,8.19,1.085
				c2.846,0.724,5.575,1.785,8.189,3.185L551.168,83.968z"/>
		</g>
	</g>
</g>
<g id="Camada_5">
</g>
<g id="Camada_4">
</g>
<g id="Camada_3">
</g>
<g id="Camada_2">
</g>
</svg>
