<?xml version="1.0" encoding="utf-8"?>
<!-- Generator: Adobe Illustrator 16.0.4, SVG Export Plug-In . SVG Version: 6.00 Build 0)  -->
<!DOCTYPE svg PUBLIC "-//W3C//DTD SVG 1.1//EN" "http://www.w3.org/Graphics/SVG/1.1/DTD/svg11.dtd">
<svg version="1.1" xmlns="http://www.w3.org/2000/svg" xmlns:xlink="http://www.w3.org/1999/xlink" x="0px" y="0px" width="719px"
	 height="156px" viewBox="0 0 719 156" enable-background="new 0 0 719 156" xml:space="preserve">
<g id="FUNDO">
</g>
<g id="Camada_1">
</g>
<g id="Camada_5">
	<g>
		<g>
			<polygon fill="#820019" points="658,0 719.114,37 658,37 			"/>
		</g>
		<g>
			<polygon fill="#820019" points="62,0 0.146,37 62,37 			"/>
		</g>
		<g>
			<rect y="37" fill="#E20019" width="719" height="119"/>
		</g>
		<g>
			<path fill="#FFFFFF" d="M69.357,83.955v35.28h-11.76v-35.28h-9.66v-9.96h31.08v9.96H69.357z"/>
			<path fill="#FFFFFF" d="M109.977,83.955H95.997v7.561h13.2v9.96h-13.2v7.8h13.979v9.96H84.237v-45.24h25.739V83.955z"/>
			<path fill="#FFFFFF" d="M118.438,119.235v-45.24h11.76l21.72,27.66v-27.66h11.7v45.24h-11.7l-21.72-27.66v27.66H118.438z"/>
			<path fill="#FFFFFF" d="M190.256,83.955v35.28h-11.76v-35.28h-9.66v-9.96h31.08v9.96H190.256z"/>
			<path fill="#FFFFFF" d="M230.877,83.955h-13.98v7.561h13.2v9.96h-13.2v7.8h13.98v9.96h-25.74v-45.24h25.74V83.955z"/>
			<path fill="#FFFFFF" d="M259.736,119.235v-45.24h11.76l21.72,27.66v-27.66h11.7v45.24h-11.7l-21.72-27.66v27.66H259.736z"/>
			<path fill="#FFFFFF" d="M312.895,96.615c0-3.36,0.62-6.489,1.86-9.39c1.239-2.9,2.96-5.431,5.16-7.59
				c2.199-2.16,4.829-3.85,7.89-5.07c3.061-1.22,6.43-1.83,10.11-1.83c3.64,0,6.999,0.61,10.079,1.83
				c3.08,1.221,5.73,2.91,7.951,5.07c2.22,2.159,3.949,4.689,5.189,7.59c1.239,2.9,1.859,6.029,1.859,9.39s-0.62,6.49-1.859,9.39
				c-1.24,2.901-2.97,5.431-5.189,7.591c-2.221,2.159-4.871,3.85-7.951,5.069s-6.439,1.83-10.079,1.83
				c-3.681,0-7.05-0.61-10.11-1.83s-5.69-2.91-7.89-5.069c-2.2-2.16-3.921-4.689-5.16-7.591
				C313.515,103.105,312.895,99.975,312.895,96.615z M325.195,96.615c0,1.8,0.339,3.46,1.02,4.98c0.68,1.521,1.6,2.84,2.76,3.96
				s2.51,1.99,4.051,2.609c1.539,0.621,3.169,0.931,4.89,0.931c1.72,0,3.35-0.31,4.89-0.931c1.539-0.619,2.9-1.489,4.08-2.609
				s2.109-2.439,2.79-3.96c0.68-1.521,1.021-3.181,1.021-4.98s-0.341-3.459-1.021-4.979c-0.681-1.521-1.61-2.84-2.79-3.96
				s-2.541-1.99-4.08-2.61c-1.54-0.62-3.17-0.93-4.89-0.93c-1.721,0-3.351,0.31-4.89,0.93c-1.541,0.62-2.891,1.49-4.051,2.61
				s-2.08,2.439-2.76,3.96C325.534,93.156,325.195,94.815,325.195,96.615z"/>
			<path fill="#FFFFFF" d="M376.375,73.995l10.92,27.54l10.979-27.54h12.78l-19.08,45.24h-9.36l-19.02-45.24H376.375z"/>
			<path fill="#FFFFFF" d="M439.914,111.375h-16.8l-2.7,7.86h-12.54l17.22-45.24h12.841l17.22,45.24h-12.54L439.914,111.375z
				 M436.794,102.435l-5.28-15.061l-5.279,15.061H436.794z"/>
			<path fill="#FFFFFF" d="M458.273,119.235l7.68-45.24h11.64l9.061,24.12l9-24.12h11.64l7.681,45.24h-11.7l-3.9-26.04l-10.68,26.04
				h-4.68l-10.141-26.04l-3.899,26.04H458.273z"/>
			<path fill="#FFFFFF" d="M548.152,83.955h-13.98v7.561h13.2v9.96h-13.2v7.8h13.98v9.96h-25.74v-45.24h25.74V83.955z"/>
			<path fill="#FFFFFF" d="M556.612,119.235v-45.24h11.76l21.72,27.66v-27.66h11.7v45.24h-11.7l-21.72-27.66v27.66H556.612z"/>
			<path fill="#FFFFFF" d="M628.432,83.955v35.28h-11.761v-35.28h-9.659v-9.96h31.079v9.96H628.432z"/>
			<path fill="#FFFFFF" d="M669.052,83.955h-13.98v7.561h13.2v9.96h-13.2v7.8h13.98v9.96h-25.74v-45.24h25.74V83.955z"/>
		</g>
	</g>
</g>
<g id="Camada_4">
</g>
<g id="Camada_3">
</g>
<g id="Camada_2">
</g>
</svg>
